<svg xmlns="http://www.w3.org/2000/svg" enable-background="new 0 0 100 100" viewBox="0 0 100 100"><path fill="#d8a353" d="M11.5 54.3c.2.3.5.5.8.5.2 0 .3 0 .5-.1l8.3-4.5 0 0L21 56.6c0 .6.4 1 1 1 0 0 0 0 0 0 .5 0 1-.4 1-1l.2-8.1c2.3-8.2.3-16.7-3.7-24.2-.1-.1-.1-.2-.2-.3l9.6-3.9c0 .1 0 .1 0 .2.9 5.4 4.9 10.7 10.9 12.9 0 0 0 0 .1 0 9.6 3.6 20.7-2.5 22.6-13.1l4.9 2.1c.5.2 1.1 0 1.3-.5.2-.5 0-1.1-.5-1.3L62 17.8c-.3-.1-.6-.1-.9.1-.3.2-.5.5-.5.8 0 .2 0 .3-.1.5-.3.2-.7.4-1 .6 0 0 0 0 0 0L46.7 16v-1.3c2.4-.5 4.1-2.5 4.1-5 0-2.8-2.3-5.1-5.1-5.1s-5.1 2.3-5.1 5.1c0 .6.4 1 1 1s1-.4 1-1c0-1.7 1.4-3.1 3.1-3.1s3.1 1.4 3.1 3.1-1.4 3.1-3.1 3.1c-.6 0-1 .4-1 1v2.1l-12.9 3.9c-.3-.2-.6-.3-1.1-.6 0-.1 0-.3-.1-.4 0-.3-.2-.6-.5-.8-.3-.2-.6-.2-.9-.1l-11.8 4.8c0 0 0 0-.1 0-.1 0-.2.1-.3.2l-15 15.7c-.3.3-.4.9-.1 1.2L11.5 54.3zM59.7 21.9l.2.1c0 0 0 .1 0 .1-2.3 7-10.2 12-18.3 9.7-4.4-1.3-8.6-4.8-10.2-9.8l.2-.1C40.9 26.7 50.4 26.7 59.7 21.9 59.7 21.9 59.7 21.9 59.7 21.9zM45.5 17.7L56.8 21c-7.5 3.3-14.9 3.3-22.4 0h0c0 0 0 0 0 0L45.5 17.7zM17.7 25.2c3.7 7.1 5.6 14.8 3.6 22.5h0l-8.6 4.7L4.1 39.3 17.7 25.2zM81.1 80.8c.5 0 1-.2 1.4-.5L93 73.2c.8-.5 1.2-1.4 1.1-2.4-.3-2.5-1.5-3.9-3.4-3.9-1-.1-11.2-1-20.5 4-3.5 1.8-6.8 4.6-9.3 8.1-.2.3-.2.7-.1 1 .2.3.5.5.9.5C61.8 80.6 82.4 80.8 81.1 80.8zM63.7 78.6c1.4-1.6 2.9-3 4.5-4.1l.1 4.2L63.7 78.6zM70.2 73.2c9.3-5.4 20.1-4.4 20.3-4.3 0 0 .1 0 .1 0 .8 0 1.3.7 1.5 2.1 0 .2-.1.4-.3.5l-10.4 7.2c-.1.1-.2.1-.3.1l-10.8-.1L70.2 73.2z" class="color000000 svgShape"/><path fill="#d8a353" d="M97.5 84.5c.9-.7 1.4-1.8 1.3-2.9l-1-13.6c0 0 0 0 0 0 0-.2-.5-4.4-7.1-4.8-.9-.2-9.5-1.4-20.6 2.5l-.2-15.1 8.3 4c.1.1.3.1.4.1.3 0 .7-.2.8-.5l9.5-14.5c.3-.4.2-.9-.1-1.2L74.2 23.2c-.1-.1-.2-.2-.3-.2h0L71.7 22c-.5-.2-1.1 0-1.3.5-.2.5 0 1.1.5 1.3l1.1.5c-3 5.3-4.4 10.4-4.7 13.9-.4 3.5-.2 7 .6 10.3l0 .5.2 17.5c-3.4 1.3-7 3.2-10.6 5.6C52.2 76 44.9 83.7 44.6 90.3c-.8.4-1.4 1.2-1.4 2.2v.7c0 .1 0 .2 0 .3H22.3l.6-30.3c0-.5-.4-1-1-1-.6-.1-1 .4-1 1l-.6 30.3H7.8c-.6 0-1 .5-1 1 0 .6.4 1 1 1 21.3 0 66.7 0 83.6 0 .8 0 1.3-.8.8-1.5.1-.3.1-.5.1-.8v-.7c0-1.2-.9-2.2-2.1-2.3l2.2-1.7L97.5 84.5zM69.1 39.4c0-.3.1-.6.1-.9.5-4.4 2.3-9.5 4.4-13.1l13.2 13.8-8.6 13.1-8.4-4.1c0-.1 0-.1 0-.2C69.1 45.3 68.9 42.4 69.1 39.4zM58.6 73.7c10.7-7.2 23.6-9.9 31.8-8.5 0 0 .1 0 .1 0 4.7.2 5.2 2.7 5.2 3l1 13.6c0 .4-.2.9-.5 1.2l-3.4 2.7v0c-.2-.3-.5-.4-.8-.4-13.4 0-30.5 0-43.8 0C51.5 79 58.6 73.7 58.6 73.7zM90.4 92.5v.7c0 .2-.2.3-.3.3-13.4 0-31.6 0-44.6 0-.2 0-.3-.2-.3-.3v-.7c0-.2.2-.3.3-.3 41.4 0 0 0 44.6 0C90.3 92.1 90.4 92.3 90.4 92.5zM88.6 89c-.2.2-.4.5-.4.8v.3c-14.6 0-28.3 0-41.6 0 .1-.9.4-2.3.7-2.8 8.7 0 34.5 0 43.5 0L88.6 89zM3.6 93.5H2c-.6 0-1 .4-1 1s.4 1 1 1h1.6c.6 0 1-.4 1-1S4.2 93.5 3.6 93.5zM98 93.5h-2.6c-.6 0-1 .4-1 1s.4 1 1 1H98c.6 0 1-.4 1-1S98.5 93.5 98 93.5z" class="color000000 svgShape"/></svg>