<svg xmlns="http://www.w3.org/2000/svg" fill-rule="evenodd" clip-rule="evenodd" image-rendering="optimizeQuality" shape-rendering="geometricPrecision" text-rendering="geometricPrecision" viewBox="0 0 3300000 3300000"><path fill="#d8a353" fill-rule="nonzero" d="M600043 377271c0-23269 4725-46539 13584-67800 8859-21380 21970-41105 38388-57524 16419-16418 36144-29530 57524-38388 21261-8859 44531-13584 67800-13584h1745558c23270 0 46539 4725 67800 13584 21380 8858 41106 21970 57524 38388 16419 16419 29530 36144 38389 57524 8859 21261 13583 44531 13583 67800v2545576c0 23269-4724 46539-13583 67800-8859 21380-21970 41105-38389 57524-16418 16418-36144 29530-57524 38389-21261 8858-44530 13583-67800 13583H777339c-23269 0-46539-4725-67800-13583-21380-8859-41105-21971-57524-38389-16418-16419-29529-36144-38388-57524-8859-21261-13584-44531-13584-67800V377271zm1600154 1872772c0-151901-61658-289509-161114-388965s-237064-161114-388965-161114-289509 61658-388965 161114-161114 237064-161114 388965c0 152019 61540 289745 160878 388965l236 236c99220 99338 236946 160878 388965 160878s289745-61540 388965-160878l236-236c99338-99220 160878-236946 160878-388965zm-90479-459600c117410 117410 190407 280178 190407 459600 0 178595-72288 340654-189226 458182l-1181 1182-118 118-118 118c-117647 117528-280296 190407-459364 190407-178595 0-340654-72289-458182-189226l-1181-1181-119-118-118-118c-117528-117647-190407-280296-190407-459364 0-179422 72997-342190 190407-459600s280178-190407 459600-190407 342190 72997 459600 190407zm-309589-540393c0-41460-16891-79139-43940-106189-15592-15591-34727-27876-56107-35435v41578h-99928v-41578c-21380 7559-40515 19844-56106 35435-27050 27050-43941 64729-43941 106189 0 41578 16773 79140 43704 106071l118 118 119-118c27049 27049 64610 43940 106070 43940s79022-16891 106071-43940l2244-2126c25750-26813 41696-63430 41696-103945zm26695-176824c45239 45240 73233 107843 73233 176824 0 67210-27049 128868-70635 173871l-2598 2835c-45004 45003-107725 73233-176706 73233s-131702-28230-176705-73233l118-118c-45240-45240-73352-107961-73352-176588 0-68981 27994-131584 73234-176824 44294-44294 105716-72288 173516-73233h-596854c-27521 0-49964-22443-49964-49964V449914c0-27522 22443-49964 49964-49964h1200086c27522 0 49964 22442 49964 49964v500115c0 27521-22442 49964-49964 49964h-596854c67800 945 129222 28939 173517 73233zm173398 1176817c0-96621-39334-184265-102527-247459-63194-63193-150956-102527-247577-102527s-184383 39334-247577 102527c-63193 63194-102527 150838-102527 247459s39334 184383 102527 247577c63194 63193 150956 102527 247577 102527s184383-39334 247577-102527c63193-63194 102527-150956 102527-247577zm-31892-318094c81384 81384 131820 193951 131820 318094s-50436 236828-131820 318212c-81384 81383-194069 131820-318212 131820s-236828-50437-318212-131820c-81383-81384-131820-194069-131820-318212s50437-236710 131820-318094c81384-81383 194069-131820 318212-131820s236828 50437 318212 131820zm231867-1432071H1100039v400186h1100158V499878zm-400068 350104V548189h99928v301793h-99928zm-199975 0V599925h99928v250057h-99928zm-199975 0V549961h99928v300021h-99928zm-200093 0V650007h99928v199975h-99928zm800136 0V650007h99928v199975h-99928zM705759 347741c-3780 9096-5788 19254-5788 29530v2545576c0 10276 2008 20435 5788 29530s9568 17836 16891 25159c7324 7323 16064 13111 25159 16891 9096 3780 19254 5788 29530 5788h1745558c10276 0 20435-2008 29530-5788s17836-9568 25159-16891 13111-16064 16891-25159 5788-19254 5788-29530V377271c0-10276-2008-20434-5788-29530-3780-9095-9568-17835-16891-25159-7323-7323-16064-13111-25159-16891s-19254-5788-29530-5788H777339c-10276 0-20434 2008-29530 5788-9095 3780-17835 9568-25159 16891-7323 7324-13111 16064-16891 25159z" class="color373435 svgShape"/></svg>