<svg xmlns="http://www.w3.org/2000/svg" viewBox="0 0 30 30"><path fill="#ff8210" d="M10 8h10V4h-.279l-.772-2.316A1 1 0 0 0 18 1h-6a.997.997 0 0 0-.948.684L10.279 4H10v4zm4-3a1 1 0 1 1 2 0v1a1 1 0 1 1-2 0V5z" class="color000000 svgShape"/><path fill="#ff8210" d="M25 4h-3v5a1 1 0 0 1-1 1H9a1 1 0 0 1-1-1V4H5a1 1 0 0 0-1 1v23a1 1 0 0 0 1 1h20a1 1 0 0 0 1-1V5a1 1 0 0 0-1-1zm-4 19H9a1 1 0 1 1 0-2h12a1 1 0 1 1 0 2zm0-4H9a1 1 0 1 1 0-2h12a1 1 0 1 1 0 2zm0-4H9a1 1 0 1 1 0-2h12a1 1 0 1 1 0 2z" class="color000000 svgShape"/></svg>