<svg xmlns="http://www.w3.org/2000/svg" enable-background="new 0 0 50 50" viewBox="0 0 50 50"><path fill="#ff8210" d="M42.33515 3.50507h-1.82007v4.51001c0 1.65002-1.3501 3-3 3-1.65015 0-3-1.34998-3-3V3.50507h-3.73999v4.51001c0 1.65002-1.3501 3-3 3-1.65015 0-3-1.34998-3-3V3.50507H21.0351v4.51001c0 1.65002-1.3501 3-3 3-1.65015 0-3-1.34998-3-3V3.50507h-1.81006c-3.04004 0-5.52002 2.46997-5.52002 5.51001v5.51001h40.13989V9.01508C47.84492 5.97504 45.37495 3.50507 42.33515 3.50507zM7.70503 21.72504c2.34985-1.41992 5.09985-2.23999 8.04004-2.23999 8.59009 0 15.59009 6.98999 15.59009 15.59009 0 3.6499-1.26025 7-3.37012 9.65991h14.37012c3.03979 0 5.50977-2.46997 5.50977-5.51001V16.52509H7.70503V21.72504z" class="color000000 svgShape"/><path fill="#ff8210" d="M18.03486 9.01508c.55273 0 1-.44775 1-1V2.3349c0-.55225-.44727-1-1-1s-1 .44775-1 1v5.68018C17.03486 8.56732 17.48212 9.01508 18.03486 9.01508zM27.77509 9.01508c.55273 0 1-.44775 1-1V2.3349c0-.55225-.44727-1-1-1s-1 .44775-1 1v5.68018C26.77509 8.56732 27.22236 9.01508 27.77509 9.01508zM37.51533 9.01508c.55273 0 1-.44775 1-1V2.3349c0-.55225-.44727-1-1-1s-1 .44775-1 1v5.68018C36.51533 8.56732 36.96259 9.01508 37.51533 9.01508zM15.74506 21.48505c-7.5 0-13.59009 6.1001-13.59009 13.59009S8.24506 48.6651 15.74506 48.6651c7.48999 0 13.59009-6.09998 13.59009-13.58997S23.23505 21.48505 15.74506 21.48505zM16.74506 46.61505v-1.35999c0-.55005-.44995-1-1-1s-1 .44995-1 1v1.35999C9.15498 46.13507 4.68501 41.6651 4.20503 36.07513h1.34985c.56006 0 1-.45007 1-1 0-.55005-.43994-1-1-1H4.20503c.47998-5.59009 4.94995-10.06006 10.54004-10.54004v1.35999c0 .54993.44995 1 1 1s1-.45007 1-1V23.5351c5.59009.47998 10.05005 4.94995 10.54004 10.54004H25.925c-.55005 0-1 .44995-1 1 0 .54993.44995 1 1 1h1.36011C26.79511 41.6651 22.33515 46.13507 16.74506 46.61505z" class="color000000 svgShape"/><path fill="#ff8210" d="M18.38496,35.07513c0,1.07996-0.68994,2.02991-1.63989,2.43994v3.15002c0,0.54993-0.44995,1-1,1s-1-0.45007-1-1v-3.15002
		c-0.94995-0.41003-1.64014-1.35999-1.64014-2.43994c0-0.36011,0.07007-0.70007,0.21021-1.02002l-3.46021-3.45996
		c-0.38989-0.39014-0.38989-1.02002,0-1.41016c0.39014-0.38989,1.02002-0.38989,1.42017,0l3.44995,3.46008
		c0.32007-0.14001,0.65991-0.21008,1.02002-0.21008C17.175,32.435,18.38496,33.64508,18.38496,35.07513z" class="color000000 svgShape"/></svg>