<svg xmlns="http://www.w3.org/2000/svg" enable-background="new 0 0 100 100" viewBox="0 0 100 100"><path fill="#f69237" d="M56.795,78.166c-2.164,2.164-5.053,3.357-8.133,3.357c-3.078,0-5.967-1.192-8.131-3.355l-6.883-6.884
		c-0.291,0.82-0.532,1.666-0.697,2.544c-1.731,9.23,4.365,18.146,13.591,19.879C47.581,93.901,48.64,94,49.688,94
		c4.884,0,9.523-2.143,12.723-5.744c0.99,0.514,2.059,0.883,3.177,1.095c0.712,0.134,1.433,0.201,2.146,0.201
		c5.56,0,10.342-3.972,11.37-9.442c0.598-3.191-0.201-6.434-2.055-8.966c1.663-1.543,2.824-3.591,3.25-5.878
		c0.589-3.129-0.257-6.195-2.06-8.545L56.795,78.166z" class="color37d0f6 svgShape"/><circle cx="14.986" cy="38.5" r="6.5" fill="#f69237" class="color37d0f6 svgShape"/><circle cx="10.986" cy="60.5" r="5.5" fill="#f69237" class="color37d0f6 svgShape"/><path fill="#f69237" d="M33.666,32.857l21.75-21.75c-0.182-0.317-0.373-0.631-0.592-0.93C52.928,7.564,49.854,6,46.607,6
			c-2.157,0-4.222,0.672-5.97,1.943c-2.184,1.586-3.595,3.958-4.029,6.527c-1.884,0.066-3.677,0.683-5.205,1.795
			c-2.055,1.496-3.404,3.701-3.8,6.211s0.21,5.021,1.704,7.072C30.414,31.07,31.941,32.21,33.666,32.857z" class="color37d0f6 svgShape"/><path fill="#ff8210" d="M91.152,27.544L73.199,9.587c-2.164-2.165-5.053-3.356-8.131-3.356c-3.08,0-5.968,1.191-8.132,3.356
		L22.575,43.948c-2.165,2.163-3.356,5.052-3.356,8.131s1.192,5.967,3.356,8.131l17.956,17.958c2.164,2.163,5.053,3.355,8.131,3.355
		c3.08,0,5.969-1.193,8.133-3.357l34.356-34.357C95.635,39.325,95.635,32.029,91.152,27.544z M39.986,56c-2.484,0-4.5-2.014-4.5-4.5
		s2.016-4.5,4.5-4.5s4.5,2.014,4.5,4.5S42.471,56,39.986,56z M59.607,56.122c-1.171,1.171-3.069,1.17-4.243,0
		c-1.171-1.171-1.171-3.072,0-4.244c1.174-1.171,3.073-1.171,4.243,0.002C60.779,53.05,60.779,54.951,59.607,56.122z M61.607,37.122
		c-1.171,1.171-3.069,1.17-4.243,0c-1.171-1.171-1.171-3.072,0-4.244c1.174-1.171,3.073-1.171,4.243,0.002
		C62.779,34.05,62.779,35.951,61.607,37.122z M74.986,40c-1.933,0-3.5-1.566-3.5-3.5s1.567-3.5,3.5-3.5s3.5,1.566,3.5,3.5
		S76.919,40,74.986,40z" class="color143151 svgShape"/></svg>