<svg xmlns="http://www.w3.org/2000/svg" data-name="glipy copy 6" viewBox="0 0 64 64"><polygon fill="#ff8210" points="31.585 6 32.585 4 19.825 4 20.825 6 31.585 6" class="color29abe2 svgShape"/><path fill="#ff8210" d="M31.535,36.5A3.03465,3.03465,0,0,1,27.0351,32.89l-1.42011.00007a4.87807,4.87807,0,0,1-4.87-4.88v-11a4.86951,4.86951,0,0,1,4.87-4.87h17.54V8a3.99891,3.99891,0,0,0-4-4h-4.33c-.43139.87341-1.30322,2.59918-1.73,3.45007A.9772.9772,0,0,1,32.205,8h-12a.97716.97716,0,0,1-.89-.55C18.89722,6.60611,18.02057,4.8486,17.595,4L13.255,4a3.99891,3.99891,0,0,0-4,4V56a3.999,3.999,0,0,0,4,4h25.9a3.999,3.999,0,0,0,4-4v-23.11h-6.28ZM30.205,56H22.205a1.00011,1.00011,0,0,1,0-2h8A1.00011,1.00011,0,0,1,30.205,56Z" class="color29abe2 svgShape"/><path fill="#ff8210" d="M51.865,14.14005H25.615a2.87006,2.87006,0,0,0-2.87,2.87v11a2.87226,2.87226,0,0,0,2.87,2.88h2.83a.882.882,0,0,1,.69.33c.45843.46442-.124,1.71277-.25995,2.57a1.01053,1.01053,0,0,0,1.54,1.04993L36.045,31.04a.88137.88137,0,0,1,.49-.15h15.33a2.88076,2.88076,0,0,0,2.88-2.88v-11A2.8786,2.8786,0,0,0,51.865,14.14005Zm-23.12,5.43h16a1.00011,1.00011,0,0,1-.00007,2H28.745A1.00016,1.00016,0,0,1,28.745,19.57Zm20,6h-20a1.00016,1.00016,0,0,1,.00006-2H48.745A1.00011,1.00011,0,0,1,48.745,25.57Z" class="color29abe2 svgShape"/></svg>